<svg width="76" height="76" xmlns="http://www.w3.org/2000/svg" xmlns:xlink="http://www.w3.org/1999/xlink" xml:space="preserve" overflow="hidden"><defs><radialGradient cx="0.132861" cy="1.00472" r="1.30547" gradientUnits="userSpaceOnUse" spreadMethod="pad" id="fill0" gradientTransform="matrix(76 0 0 76 632 352)"><stop offset="0" stop-color="#FA8F21" stop-opacity="1"/><stop offset="0.09" stop-color="#FA8F21" stop-opacity="1"/><stop offset="0.78" stop-color="#D82D7E" stop-opacity="1"/><stop offset="1" stop-color="#D82D7E" stop-opacity="1"/></radialGradient></defs><g transform="translate(-632 -352)"><g><path d="M657.336 390C657.336 383.005 663.006 377.332 670.002 377.332 676.997 377.332 682.67 383.005 682.67 390 682.67 396.995 676.997 402.668 670.002 402.668 663.006 402.668 657.336 396.995 657.336 390M650.488 390C650.488 400.777 659.224 409.513 670.002 409.513 680.779 409.513 689.515 400.777 689.515 390 689.515 379.223 680.779 370.487 670.002 370.487 659.224 370.487 650.488 379.223 650.488 390M685.727 369.714C685.726 372.232 687.767 374.275 690.286 374.276 692.804 374.277 694.846 372.236 694.848 369.717 694.849 367.199 692.808 365.157 690.289 365.156L690.287 365.156C687.77 365.157 685.729 367.197 685.727 369.714M654.649 420.931C650.944 420.762 648.93 420.145 647.592 419.624 645.818 418.933 644.552 418.111 643.221 416.781 641.89 415.452 641.066 414.188 640.378 412.414 639.857 411.076 639.239 409.062 639.071 405.357 638.887 401.351 638.85 400.148 638.85 390 638.85 379.852 638.89 378.653 639.071 374.644 639.24 370.939 639.861 368.929 640.378 367.587 641.069 365.813 641.892 364.547 643.221 363.216 644.55 361.885 645.815 361.061 647.592 360.374 648.93 359.852 650.944 359.235 654.649 359.066 658.655 358.882 659.858 358.845 670.002 358.845 680.145 358.845 681.35 358.885 685.359 359.066 689.064 359.235 691.074 359.857 692.416 360.374 694.19 361.061 695.456 361.887 696.787 363.216 698.118 364.545 698.939 365.813 699.629 367.587 700.151 368.925 700.768 370.939 700.937 374.644 701.121 378.653 701.158 379.852 701.158 390 701.158 400.148 701.121 401.348 700.937 405.357 700.768 409.062 700.148 411.075 699.629 412.414 698.939 414.188 698.116 415.454 696.787 416.781 695.458 418.109 694.19 418.933 692.416 419.624 691.078 420.146 689.064 420.763 685.359 420.931 681.353 421.115 680.15 421.152 670.002 421.152 659.853 421.152 658.653 421.115 654.649 420.931M654.334 352.23C650.289 352.414 647.524 353.056 645.11 353.995 642.61 354.965 640.493 356.267 638.378 358.378 636.263 360.49 634.965 362.61 633.995 365.11 633.056 367.525 632.414 370.288 632.23 374.333 632.043 378.385 632 379.68 632 390 632 400.32 632.043 401.615 632.23 405.667 632.414 409.712 633.056 412.475 633.995 414.89 634.965 417.389 636.264 419.511 638.378 421.622 640.493 423.732 642.61 425.032 645.11 426.005 647.529 426.944 650.289 427.586 654.334 427.77 658.388 427.954 659.682 428 670.002 428 680.322 428 681.617 427.957 685.669 427.77 689.715 427.586 692.477 426.944 694.893 426.005 697.391 425.032 699.51 423.733 701.625 421.622 703.74 419.51 705.035 417.389 706.008 414.89 706.947 412.475 707.592 409.712 707.773 405.667 707.957 401.612 708 400.32 708 390 708 379.68 707.957 378.385 707.773 374.333 707.589 370.288 706.947 367.524 706.008 365.11 705.035 362.611 703.736 360.493 701.625 358.378 699.513 356.263 697.391 354.965 694.896 353.995 692.477 353.056 689.714 352.411 685.672 352.23 681.62 352.046 680.325 352 670.005 352 659.685 352 658.388 352.043 654.334 352.23" fill="url(#fill0)" fill-rule="nonzero"/></g></g></svg>