<svg fill="none" height="92" viewBox="0 0 92 92" width="92" xmlns="http://www.w3.org/2000/svg" xmlns:xlink="http://www.w3.org/1999/xlink"><linearGradient id="a"><stop offset="0" stop-color="#f452ff"/><stop offset="1" stop-color="#832bc1"/></linearGradient><linearGradient id="b" gradientUnits="userSpaceOnUse" x1="45.4871" x2="45.4871" xlink:href="#a" y1="49.4424" y2="71.8338"/><linearGradient id="c" gradientUnits="userSpaceOnUse" x1="45.4809" x2="45.4809" xlink:href="#a" y1="36.252" y2="47.2137"/><linearGradient id="d" gradientUnits="userSpaceOnUse" x1="45.5053" x2="45.5053" xlink:href="#a" y1="20.1436" y2="65.8633"/><linearGradient id="e" gradientUnits="userSpaceOnUse" x1="45.4915" x2="45.4915" xlink:href="#a" y1="27.9287" y2="56.7317"/><path d="m51.2102 53.0963c-.0891-.8021-.3565-1.3814-.8912-1.9161-1.0026-1.0471-2.7627-1.7378-4.8348-1.7378-2.072 0-3.8321.6684-4.8347 1.7378-.5125.557-.8021 1.114-.8912 1.9161-.1783 1.5596-.0669 2.8964.1114 5.0576.1782 2.0497.5124 4.7902.9357 7.5529.3119 1.9829.557 3.0524.7798 3.8099.3788 1.2477 1.7379 2.3171 3.899 2.3171 2.1612 0 3.5426-1.0917 3.899-2.3171.2228-.7575.4679-1.827.7798-3.8099.4234-2.785.7576-5.5032.9358-7.5529.2005-2.1612.2896-3.498.1114-5.0576z" fill="url(#b)"/><path d="m50.9618 41.7328c0 3.0301-2.4508 5.4809-5.4809 5.4809s-5.4809-2.4508-5.4809-5.4809c0-3.03 2.4508-5.4808 5.4809-5.4808s5.4809 2.473 5.4809 5.4808z" fill="url(#c)"/><path d="m45.4172 20.1436c-12.7888.0445-23.2604 10.427-23.4386 23.2158-.1337 10.3602 6.4834 19.2277 15.7297 22.4806.2228.0891.4456-.1115.4233-.3343-.1114-.802-.2451-1.6041-.3342-2.4062-.0446-.2896-.2228-.5124-.4679-.6461-7.3079-3.1861-12.41-10.5162-12.3209-19.0049.1114-11.14 9.2017-20.208 20.3194-20.2971 11.3851-.0891 20.6759 9.1348 20.6759 20.4976 0 8.3996-5.0798 15.6183-12.3208 18.8044-.2674.1114-.4457.3565-.4679.6461-.1114.8021-.2228 1.6042-.3342 2.4062-.0446.2451.2005.4234.4233.3343 9.1571-3.2084 15.7297-11.9422 15.7297-22.191-.0446-12.967-10.6276-23.5277-23.6168-23.5054z" fill="url(#d)"/><path d="m44.8793 27.9414c-8.3327.3119-15.0167 7.1965-15.1281 15.5292-.0668 5.4809 2.6736 10.3379 6.8845 13.2121.2005.1336.4902-.0223.4902-.2674-.0669-.958-.0669-1.8047-.0223-2.6959.0223-.2896-.0891-.557-.3119-.7575-2.5622-2.4063-4.1218-5.8374-4.0327-9.625.1782-6.684 5.5477-12.1203 12.2317-12.3877 7.2633-.2896 13.2344 5.5477 13.2344 12.7219 0 3.6539-1.5596 6.9514-4.0327 9.2908-.2005.2005-.3119.4679-.3119.7575.0445.8689.0223 1.7156-.0223 2.6736-.0223.2451.2674.4233.4902.2674 4.144-2.8296 6.8845-7.6198 6.8845-13.0116.0223-8.8674-7.397-16.0639-16.3536-15.7074z" fill="url(#e)"/></svg>