<svg width="82" height="90" xmlns="http://www.w3.org/2000/svg" xmlns:xlink="http://www.w3.org/1999/xlink" xml:space="preserve" overflow="hidden"><defs><linearGradient x1="74.409" y1="80.8792" x2="74.409" y2="117.508" gradientUnits="userSpaceOnUse" spreadMethod="pad" id="fill0"><stop offset="0" stop-color="#F452FF" stop-opacity="1"/><stop offset="1" stop-color="#832BC1" stop-opacity="1"/></linearGradient><linearGradient x1="74.3989" y1="59.302" x2="74.3989" y2="77.2334" gradientUnits="userSpaceOnUse" spreadMethod="pad" id="fill1"><stop offset="0" stop-color="#F452FF" stop-opacity="1"/><stop offset="1" stop-color="#832BC1" stop-opacity="1"/></linearGradient><linearGradient x1="74.4388" y1="32.9514" x2="74.4388" y2="107.741" gradientUnits="userSpaceOnUse" spreadMethod="pad" id="fill2"><stop offset="0" stop-color="#F452FF" stop-opacity="1"/><stop offset="1" stop-color="#832BC1" stop-opacity="1"/></linearGradient><linearGradient x1="74.4162" y1="45.6865" x2="74.4162" y2="92.8032" gradientUnits="userSpaceOnUse" spreadMethod="pad" id="fill3"><stop offset="0" stop-color="#F452FF" stop-opacity="1"/><stop offset="1" stop-color="#832BC1" stop-opacity="1"/></linearGradient></defs><g transform="translate(-538 -216)"><g><g><g><path d="M83.771 86.8564C83.6253 85.5443 83.1879 84.5966 82.3132 83.7219 80.6731 82.0091 77.7939 80.8792 74.4043 80.8792 71.0148 80.8792 68.1356 81.9726 66.4956 83.7219 65.6572 84.6331 65.1834 85.5443 65.0377 86.8564 64.746 89.4076 64.9283 91.5944 65.2199 95.1297 65.5114 98.4827 66.0581 102.966 66.7506 107.485 67.2608 110.729 67.6617 112.478 68.0262 113.717 68.6458 115.758 70.8691 117.508 74.4043 117.508 77.9396 117.508 80.1994 115.722 80.7824 113.717 81.1468 112.478 81.5478 110.729 82.058 107.485 82.7506 102.929 83.2973 98.4827 83.5888 95.1297 83.9168 91.5944 84.0625 89.4076 83.771 86.8564Z" fill="url(#fill0)" fill-rule="nonzero" transform="matrix(1 0 0 1.00092 505.178 185.999)"/><path d="M83.3647 68.2676C83.3647 73.2244 79.3556 77.2334 74.3989 77.2334 69.4422 77.2334 65.4331 73.2244 65.4331 68.2676 65.4331 63.3111 69.4422 59.302 74.3989 59.302 79.3556 59.302 83.3647 63.3474 83.3647 68.2676Z" fill="url(#fill1)" fill-rule="nonzero" transform="matrix(1 0 0 1.00092 505.178 185.999)"/><path d="M74.2947 32.9514C53.3744 33.0242 36.2447 50.0082 35.9532 70.9285 35.7345 87.876 46.5589 102.382 61.6843 107.703 62.0487 107.849 62.4132 107.52 62.3767 107.156 62.1945 105.844 61.9758 104.532 61.83 103.22 61.757 102.746 61.4655 102.382 61.0646 102.163 49.1101 96.951 40.764 84.9603 40.9097 71.0742 41.092 52.8511 55.9621 38.0174 74.1488 37.8717 92.7728 37.7259 107.971 52.8146 107.971 71.4022 107.971 85.1425 99.6613 96.951 87.8163 102.163 87.3788 102.345 87.0872 102.746 87.0509 103.22 86.8686 104.532 86.6864 105.844 86.5042 107.156 86.4312 107.557 86.8322 107.849 87.1966 107.703 102.176 102.454 112.928 88.1675 112.928 71.4022 112.855 50.1904 95.5428 32.915 74.2947 32.9514Z" fill="url(#fill2)" fill-rule="nonzero" transform="matrix(1 0 0 1.00092 505.178 185.999)"/><path d="M73.4148 45.7073C59.7839 46.2175 48.85 57.4795 48.6678 71.1104 48.5585 80.0762 53.0414 88.0214 59.9297 92.7231 60.2576 92.9416 60.7315 92.6866 60.7315 92.2857 60.6221 90.7185 60.6221 89.3335 60.6951 87.8756 60.7315 87.4019 60.5493 86.9645 60.1849 86.6365 55.9935 82.7002 53.4423 77.0875 53.5881 70.8917 53.8796 59.9578 62.6631 51.065 73.597 50.6275 85.4785 50.1538 95.2462 59.7026 95.2462 71.4384 95.2462 77.4155 92.695 82.8097 88.6494 86.6365 88.3214 86.9645 88.1392 87.4019 88.1392 87.8756 88.212 89.297 88.1757 90.6821 88.1027 92.2492 88.0662 92.6501 88.5401 92.9416 88.9046 92.6866 95.6834 88.0579 100.166 80.2219 100.166 71.4019 100.203 56.8964 88.0662 45.1241 73.4148 45.7073Z" fill="url(#fill3)" fill-rule="nonzero" transform="matrix(1 0 0 1.00092 505.178 185.999)"/></g></g></g></g></svg>