<svg width="77" height="76" xmlns="http://www.w3.org/2000/svg" xmlns:xlink="http://www.w3.org/1999/xlink" xml:space="preserve" overflow="hidden"><g transform="translate(-344 -216)"><g><g><g><g><path d="M405.478 249.688C393.229 242.414 373.025 241.745 361.331 245.294 359.454 245.864 357.468 244.803 356.899 242.926 356.33 241.047 357.389 239.062 359.269 238.492 372.691 234.417 395.005 235.204 409.106 243.575 410.795 244.577 411.35 246.759 410.348 248.445 409.346 250.134 407.163 250.691 405.478 249.688M405.077 260.462C404.218 261.857 402.395 262.294 401.002 261.438 390.79 255.16 375.218 253.342 363.136 257.01 361.57 257.483 359.915 256.599 359.439 255.036 358.967 253.469 359.851 251.817 361.415 251.341 375.216 247.153 392.373 249.181 404.102 256.389 405.495 257.247 405.933 259.071 405.077 260.462M400.428 270.809C399.744 271.929 398.286 272.28 397.171 271.598 388.248 266.144 377.016 264.912 363.788 267.933 362.514 268.225 361.243 267.426 360.953 266.152 360.661 264.878 361.456 263.607 362.734 263.316 377.209 260.007 389.626 261.431 399.641 267.552 400.758 268.234 401.11 269.693 400.428 270.809M383 216C362.013 216 345 233.013 345 253.999 345 274.988 362.013 292 383 292 403.987 292 421 274.988 421 253.999 421 233.013 403.987 216 383 216" fill="#1ED760" fill-rule="evenodd" fill-opacity="1"/></g></g></g></g></g></svg>